# xmcd CD database file
#
# Track frame offsets:
#	187
#	24475
#	53975
#	76650
#	100595
#	123550
#	140442
#	159550
#	178632
#	200470
#	223530
#
# Disc length: 3345 seconds
#
# Revision: 0
# Processed by: cddbd v1.5.1PL0 Copyright (c) Steve Scherf et al.
# Submitted via: CDex 1.51
#
DISCID=8e0d0f0b
DTITLE=THE GOMBO - SHUFFLE
DYEAR=1992
DGENRE=Jazz
TTITLE0=Love and Happiness
TTITLE1=そして僕は途方に暮れる
TTITLE2=While My Guitar Gentry Weeps
TTITLE3=The Question of U
TTITLE4=Groovin'
TTITLE5=Too Soon to Tell
TTITLE6=Nearess of You
TTITLE7=Send in the Clowns
TTITLE8=National Blues
TTITLE9=Miss You
TTITLE10=見上げてごらん夜の星を
EXTD=YEAR: 1992
EXTT0=
EXTT1=
EXTT2=
EXTT3=
EXTT4=
EXTT5=
EXTT6=
EXTT7=
EXTT8=
EXTT9=
EXTT10=
PLAYORDER=
